<svg xmlns="http://www.w3.org/2000/svg" width="43.793" height="43.792" viewBox="0 0 43.793 43.792">
  <path id="add-detail" data-name="add-detail" d="M560.817-168.128a21.761,21.761,0,0,1-8.523-1.721,21.824,21.824,0,0,1-6.96-4.692,21.824,21.824,0,0,1-4.693-6.96,21.761,21.761,0,0,1-1.721-8.523,21.76,21.76,0,0,1,1.721-8.523,21.824,21.824,0,0,1,4.693-6.96,21.824,21.824,0,0,1,6.96-4.693,21.76,21.76,0,0,1,8.523-1.721,21.758,21.758,0,0,1,8.523,1.721,21.824,21.824,0,0,1,6.96,4.693,21.825,21.825,0,0,1,4.693,6.96,21.759,21.759,0,0,1,1.721,8.523,21.76,21.76,0,0,1-1.721,8.523,21.823,21.823,0,0,1-4.693,6.96,21.822,21.822,0,0,1-6.96,4.692A21.759,21.759,0,0,1,560.817-168.128Zm-7.264-23.349a1.437,1.437,0,0,0-1.453,1.453,1.437,1.437,0,0,0,1.453,1.453h5.811v5.811a1.438,1.438,0,0,0,1.453,1.453,1.437,1.437,0,0,0,1.453-1.453v-5.811h5.811a1.437,1.437,0,0,0,1.453-1.453,1.437,1.437,0,0,0-1.453-1.453H562.27v-5.811a1.437,1.437,0,0,0-1.453-1.453,1.438,1.438,0,0,0-1.453,1.453v5.811Z" transform="translate(-538.92 211.92)" fill="#d97d54"/>
</svg>
