<svg xmlns="http://www.w3.org/2000/svg" width="49.841" height="49.84" viewBox="0 0 49.841 49.84">
  <path id="add_Home" data-name="add Home" d="M563.841-162.08a24.767,24.767,0,0,1-9.7-1.958,24.838,24.838,0,0,1-7.921-5.34,24.837,24.837,0,0,1-5.341-7.921,24.765,24.765,0,0,1-1.958-9.7,24.763,24.763,0,0,1,1.958-9.7,24.837,24.837,0,0,1,5.341-7.921,24.837,24.837,0,0,1,7.921-5.341,24.765,24.765,0,0,1,9.7-1.958,24.763,24.763,0,0,1,9.7,1.958,24.838,24.838,0,0,1,7.921,5.341A24.839,24.839,0,0,1,586.8-196.7a24.763,24.763,0,0,1,1.958,9.7,24.765,24.765,0,0,1-1.958,9.7,24.837,24.837,0,0,1-5.341,7.921,24.836,24.836,0,0,1-7.921,5.34A24.765,24.765,0,0,1,563.841-162.08Zm-8.267-26.573A1.636,1.636,0,0,0,553.92-187a1.636,1.636,0,0,0,1.653,1.653h6.613v6.614a1.636,1.636,0,0,0,1.654,1.653,1.636,1.636,0,0,0,1.653-1.653v-6.614h6.613A1.636,1.636,0,0,0,573.761-187a1.636,1.636,0,0,0-1.653-1.653h-6.613v-6.613a1.636,1.636,0,0,0-1.653-1.653,1.636,1.636,0,0,0-1.654,1.653v6.613Z" transform="translate(-538.92 211.92)" fill="#ccc"/>
</svg>
