<svg xmlns="http://www.w3.org/2000/svg" width="18.488" height="16.723" viewBox="0 0 18.488 16.723">
  <path id="Attachment" d="M44.882,31.846a3.877,3.877,0,0,0-5.472,0l-8.129,8.168a2.327,2.327,0,1,0,3.291,3.291l5.036-5.075a.785.785,0,0,0-1.11-1.11l-5.075,5.036a.729.729,0,0,1-1.031-1.031l8.129-8.168a2.271,2.271,0,0,1,3.212,3.212L35.6,44.337a3.813,3.813,0,0,1-5.393-5.393l7.3-7.3a.785.785,0,0,0-1.11-1.11l-7.3,7.256a5.411,5.411,0,0,0,7.653,7.653l8.129-8.129A3.877,3.877,0,0,0,44.882,31.846Z" transform="translate(-27.525 -30.3)" fill="#334856"/>
</svg>
