<svg xmlns="http://www.w3.org/2000/svg" width="34.787" height="34.015" viewBox="0 0 34.787 34.015">
  <path id="Calendar" d="M149.561-58.985a3.181,3.181,0,0,1-3.181-3.182v-.855H144.3c-1.755,0-2.925-1.22-2.608-2.718l4.274-20.223a4.895,4.895,0,0,1,.72-1.626,3.8,3.8,0,0,1,2.878-1.445h2.11v-2.571A1.393,1.393,0,0,1,153.068-93a1.394,1.394,0,0,1,1.394,1.394v2.571h13.884v-2.571A1.394,1.394,0,0,1,169.74-93a1.393,1.393,0,0,1,1.393,1.394v2.571h2.113a3.181,3.181,0,0,1,3.182,3.182v23.686a3.181,3.181,0,0,1-3.182,3.182Zm-1.414-3.182a1.414,1.414,0,0,0,1.414,1.414h23.685a1.414,1.414,0,0,0,1.414-1.414V-79.554l-2.92,13.814a3.865,3.865,0,0,1-3.758,2.718H148.147ZM143.46-65.74c-.141.667.379,1.209,1.16,1.209H168.3a1.717,1.717,0,0,0,1.67-1.209L173.6-82.885H147.083Zm24.922-18.839a1.933,1.933,0,0,0,2.715,0,1.932,1.932,0,0,0,.036-2.714v.326a1.393,1.393,0,0,1-1.393,1.394,1.394,1.394,0,0,1-1.394-1.394v-.326A1.932,1.932,0,0,0,168.382-84.578Zm-16.672,0a1.933,1.933,0,0,0,2.715,0,1.932,1.932,0,0,0,.036-2.714v.326a1.394,1.394,0,0,1-1.394,1.394,1.393,1.393,0,0,1-1.393-1.394v-.326A1.932,1.932,0,0,0,151.71-84.578Zm12.735,18.635a.772.772,0,0,1-.772-.773l.386-2.319a.774.774,0,0,1,.773-.773h2.319a.774.774,0,0,1,.773.773l-.387,2.319a.772.772,0,0,1-.773.773Zm-6.184,0a.772.772,0,0,1-.773-.773l.386-2.319a.774.774,0,0,1,.773-.773h2.319a.773.773,0,0,1,.773.773l-.386,2.319a.773.773,0,0,1-.773.773Zm-5.8,0a.772.772,0,0,1-.773-.773l.386-2.319a.774.774,0,0,1,.773-.773h2.319a.774.774,0,0,1,.773.773l-.387,2.319a.772.772,0,0,1-.772.773Zm-5.8,0a.773.773,0,0,1-.773-.773l.387-2.319a.774.774,0,0,1,.773-.773h2.319a.774.774,0,0,1,.773.773l-.387,2.319a.772.772,0,0,1-.773.773Zm19.327-5.8a.774.774,0,0,1-.773-.773l.387-2.319a.773.773,0,0,1,.773-.773H168.7a.774.774,0,0,1,.773.773l-.387,2.319a.773.773,0,0,1-.773.773Zm-6.184,0a.773.773,0,0,1-.773-.773l.386-2.319a.774.774,0,0,1,.773-.773h2.319a.774.774,0,0,1,.773.773l-.386,2.319a.774.774,0,0,1-.773.773Zm-5.8,0a.773.773,0,0,1-.773-.773l.386-2.319a.774.774,0,0,1,.773-.773h2.319a.774.774,0,0,1,.773.773l-.387,2.319a.773.773,0,0,1-.773.773Zm-5.8,0a.774.774,0,0,1-.773-.773l.387-2.319a.773.773,0,0,1,.773-.773h2.319a.774.774,0,0,1,.773.773l-.387,2.319a.773.773,0,0,1-.773.773Zm19.327-5.8a.774.774,0,0,1-.773-.773l.387-2.319a.773.773,0,0,1,.773-.773h2.319a.774.774,0,0,1,.773.773l-.387,2.319a.773.773,0,0,1-.773.773Zm-6.184,0a.773.773,0,0,1-.773-.773l.386-2.319a.774.774,0,0,1,.773-.773h2.319a.774.774,0,0,1,.773.773l-.387,2.319a.773.773,0,0,1-.772.773Zm-5.8,0a.773.773,0,0,1-.772-.773l.386-2.319a.774.774,0,0,1,.773-.773h2.319a.774.774,0,0,1,.773.773l-.387,2.319a.773.773,0,0,1-.773.773Zm-5.8,0a.774.774,0,0,1-.773-.773l.387-2.319a.773.773,0,0,1,.773-.773h2.319a.774.774,0,0,1,.773.773l-.387,2.319a.773.773,0,0,1-.773.773Z" transform="translate(-141.641 93)" fill="#334856"/>
</svg>
