<svg xmlns="http://www.w3.org/2000/svg" width="16.637" height="20.002" viewBox="0 0 16.637 20.002">
  <path id="Delete" d="M271.83-49h-7.024a2.481,2.481,0,0,1-2.484-2.216l-1.415-12.792h-.08a.828.828,0,0,1-.828-.828.828.828,0,0,1,.828-.828h4.166v-.828A2.513,2.513,0,0,1,267.5-69h1.656a2.513,2.513,0,0,1,2.51,2.51v.828h4.139a.828.828,0,0,1,.828.828.829.829,0,0,1-.828.828h-.08l-1.415,12.792A2.484,2.484,0,0,1,271.83-49Zm-9.24-15.007,1.389,12.6a.834.834,0,0,0,.828.748h7.024a.834.834,0,0,0,.828-.748l1.415-12.6H262.59Zm4.914-3.339a.829.829,0,0,0-.829.829v.828h3.338v-.828a.829.829,0,0,0-.829-.829Zm3,14.075a.829.829,0,0,1-.828-.829v-6.676a.829.829,0,0,1,.828-.828.829.829,0,0,1,.828.828V-54.1A.829.829,0,0,1,270.507-53.269Zm-4.4,0a.829.829,0,0,1-.828-.829v-6.676a.829.829,0,0,1,.828-.828.829.829,0,0,1,.829.828V-54.1A.829.829,0,0,1,266.112-53.269Z" transform="translate(-260 69)" fill="#334856"/>
</svg>
