<svg xmlns="http://www.w3.org/2000/svg" width="20.877" height="17.504" viewBox="0 0 20.877 17.504">
  <path id="Hide" d="M261.922-51.731a.8.8,0,0,1,0-1.136l15.9-15.9a.8.8,0,0,1,1.135,0,.8.8,0,0,1,0,1.135l-15.9,15.9a.8.8,0,0,1-.568.235A.8.8,0,0,1,261.922-51.731Zm4.916-2.644,2.134-2.135a3.993,3.993,0,0,0,1.467.277,4.015,4.015,0,0,0,4.015-4.015,4.012,4.012,0,0,0-.276-1.468l1.207-1.207a5.6,5.6,0,0,1,.676,2.675,5.606,5.606,0,0,1-1.761,4.086,11.787,11.787,0,0,0,2.593-1.382,8.587,8.587,0,0,0,1.882-1.763,4.1,4.1,0,0,0,.318-.484c.028-.051.052-.1.074-.146.01-.02.018-.039.026-.058a.915.915,0,0,0,.08-.254.621.621,0,0,0-.013-.069,1.365,1.365,0,0,0-.067-.185,3.52,3.52,0,0,0-.418-.688,8.586,8.586,0,0,0-1.882-1.762c-.283-.2-.584-.394-.9-.577l1.171-1.17c2.272,1.409,3.716,3.261,3.716,4.451,0,2.141-4.674,6.423-10.439,6.423A12.27,12.27,0,0,1,266.837-54.375ZM260-60.248c0-2.141,4.674-6.424,10.438-6.424a12.276,12.276,0,0,1,3.6.552l-2.135,2.134a4,4,0,0,0-1.467-.276,4.015,4.015,0,0,0-4.015,4.015,3.994,3.994,0,0,0,.277,1.467l-1.207,1.207a5.6,5.6,0,0,1-.676-2.674,5.6,5.6,0,0,1,1.761-4.086c-.239.091-.473.19-.7.294s-.423.2-.626.309c-.239.128-.472.261-.694.4l-.141.089q-.221.142-.429.29A8.566,8.566,0,0,0,262.1-61.19c-.094.124-.172.239-.237.346a2.649,2.649,0,0,0-.181.342.907.907,0,0,0-.08.255l0,.023c0,.014.007.032.013.058a1.408,1.408,0,0,0,.064.174,3.433,3.433,0,0,0,.418.688,8.567,8.567,0,0,0,1.882,1.763c.283.2.583.393.9.576l-1.17,1.171C261.444-57.207,260-59.058,260-60.248Z" transform="translate(-260 69)" fill="#334856"/>
</svg>
