<svg xmlns="http://www.w3.org/2000/svg" width="18.01" height="18.576" viewBox="0 0 18.01 18.576">
  <path id="Location" d="M262.761-51.432a6.238,6.238,0,0,1-1.966-1.139,2.134,2.134,0,0,1-.8-1.571,2.138,2.138,0,0,1,.8-1.573,6.227,6.227,0,0,1,1.966-1.138,13.767,13.767,0,0,1,2.5-.686c.13.214.265.434.406.657a13.435,13.435,0,0,0-2.651.7c-1.463.569-2.3,1.313-2.3,2.042s.84,1.472,2.3,2.041a17.1,17.1,0,0,0,5.983.96,17.1,17.1,0,0,0,5.984-.96c1.463-.569,2.3-1.312,2.3-2.041s-.84-1.473-2.3-2.042a13.272,13.272,0,0,0-2.465-.666q.209-.333.4-.654a13.617,13.617,0,0,1,2.32.652,6.243,6.243,0,0,1,1.967,1.139,2.14,2.14,0,0,1,.8,1.572,2.137,2.137,0,0,1-.8,1.571,6.249,6.249,0,0,1-1.966,1.139A17.851,17.851,0,0,1,269-50.424,17.842,17.842,0,0,1,262.761-51.432Zm5.968-2.748c-.013-.017-1.278-1.647-2.526-3.6-1.7-2.657-2.565-4.623-2.565-5.843a5.351,5.351,0,0,1,.423-2.1,5.361,5.361,0,0,1,1.154-1.71,5.375,5.375,0,0,1,1.71-1.154,5.366,5.366,0,0,1,2.1-.423,5.359,5.359,0,0,1,2.094.423,5.38,5.38,0,0,1,1.711,1.154,5.358,5.358,0,0,1,1.153,1.71,5.335,5.335,0,0,1,.424,2.1c0,1.22-.863,3.186-2.566,5.843-1.247,1.949-2.514,3.579-2.526,3.6l-.29.373Zm-1.8-9.679a2.086,2.086,0,0,0,2.086,2.086,2.086,2.086,0,0,0,2.086-2.086,2.086,2.086,0,0,0-2.086-2.086A2.086,2.086,0,0,0,266.934-63.859Z" transform="translate(-260 69)" fill="#334856"/>
</svg>
