<svg xmlns="http://www.w3.org/2000/svg" width="18.989" height="18.235" viewBox="0 0 18.989 18.235">
  <path id="Notes" d="M261.023-50.765A1.011,1.011,0,0,1,260-51.789V-66.12a1.011,1.011,0,0,1,1.023-1.024h10.065l-1.17,1.17H261.17v14.039h14.039v-6.419l1.17-1.17v7.736a1.011,1.011,0,0,1-1.023,1.023Zm4.991-5.562.616-3.008c.026-.044.048-.087.073-.131l6.465-6.468a.128.128,0,0,1,.183,0l2.569,2.574a.127.127,0,0,1,0,.182l-6.465,6.468c-.043.022-.087.044-.131.069l-3.008.617a.263.263,0,0,1-.047,0A.261.261,0,0,1,266.014-56.327Zm11.17-8.377-2.489-2.489a.184.184,0,0,1,0-.263l1.354-1.354a.65.65,0,0,1,.916,0l1.836,1.836a.65.65,0,0,1,0,.916L277.447-64.7a.185.185,0,0,1-.131.055A.185.185,0,0,1,277.184-64.7Z" transform="translate(-260 69)" fill="#334856"/>
</svg>
