<svg xmlns="http://www.w3.org/2000/svg" width="20.272" height="18.465" viewBox="0 0 20.272 18.465">
  <path id="Remainder" d="M267.324-53.115h-2.389a1.619,1.619,0,0,1-1.471-.939,1.6,1.6,0,0,1,.213-1.727l.768-.938a3.322,3.322,0,0,0,.746-2.111v-1.748a4.979,4.979,0,0,1,4.35-4.947v-.9a.619.619,0,0,1,.618-.618.619.619,0,0,1,.618.618v.874a5,5,0,0,1,4.35,4.947v1.749a3.318,3.318,0,0,0,.746,2.111l.747.939a1.6,1.6,0,0,1,.213,1.727,1.62,1.62,0,0,1-1.471.938h-2.389a2.853,2.853,0,0,1-2.836,2.6A2.815,2.815,0,0,1,267.324-53.115Zm2.814,1.322a1.6,1.6,0,0,0,1.579-1.344h-3.156A1.6,1.6,0,0,0,270.139-51.793Zm-3.731-8.764v1.749a4.568,4.568,0,0,1-1.023,2.878l-.768.939a.41.41,0,0,0-.042.405.358.358,0,0,0,.341.213h10.47a.359.359,0,0,0,.341-.213.378.378,0,0,0-.064-.405l-.768-.939a4.563,4.563,0,0,1-1.024-2.878v-1.749a3.749,3.749,0,0,0-3.731-3.731A3.736,3.736,0,0,0,266.407-60.557Zm13.242-1.109a.637.637,0,0,1-.618-.511,8.962,8.962,0,0,0-3.561-5.693.618.618,0,0,1-.128-.874.62.62,0,0,1,.875-.129,10.255,10.255,0,0,1,4.051,6.483.643.643,0,0,1-.512.724Zm-19.127,0a.626.626,0,0,1-.511-.724,10.252,10.252,0,0,1,4.051-6.483.618.618,0,0,1,.874.129.618.618,0,0,1-.128.874,9.049,9.049,0,0,0-3.56,5.693.637.637,0,0,1-.618.511Zm15.758-.618A6.689,6.689,0,0,0,274-65.653a.635.635,0,0,1-.107-.875.636.636,0,0,1,.875-.106,7.53,7.53,0,0,1,2.707,4.009.6.6,0,0,1-.426.768.469.469,0,0,1-.171.022A.614.614,0,0,1,276.28-62.285Zm-13.072.427a.627.627,0,0,1-.426-.768,7.684,7.684,0,0,1,2.729-4.009.616.616,0,0,1,.875.106.617.617,0,0,1-.107.875A6.43,6.43,0,0,0,264-62.285a.64.64,0,0,1-.618.448A.466.466,0,0,1,263.209-61.858Z" transform="translate(-260 69)" fill="#334856"/>
</svg>
