<svg xmlns="http://www.w3.org/2000/svg" width="15.942" height="18.334" viewBox="0 0 15.942 18.334">
  <path id="Repeat" d="M18.942,10.816v3.259A3.835,3.835,0,0,1,15.116,17.9H6.179l.567.567A.886.886,0,1,1,5.5,19.726L3.416,17.645a.939.939,0,0,1-.195-.292.886.886,0,0,1,0-.673.939.939,0,0,1,.195-.292L5.5,14.306a.886.886,0,1,1,1.249,1.258l-.567.567h8.936a2.055,2.055,0,0,0,2.055-2.055V10.816a.886.886,0,0,1,1.771,0ZM3.886,11.7a.886.886,0,0,0,.886-.886V7.557A2.055,2.055,0,0,1,6.826,5.5h8.936l-.567.567a.886.886,0,1,0,1.249,1.258l2.081-2.081a.939.939,0,0,0,.195-.292.886.886,0,0,0,0-.673.939.939,0,0,0-.195-.292L16.444,1.907A.886.886,0,1,0,15.2,3.164l.567.567H6.826A3.835,3.835,0,0,0,3,7.557v3.259A.886.886,0,0,0,3.886,11.7Z" transform="translate(-3 -1.649)" fill="#334856"/>
</svg>
