<svg xmlns="http://www.w3.org/2000/svg" width="22.66" height="22.663" viewBox="0 0 22.66 22.663">
  <path id="Search" d="M280.652-46.336a2,2,0,0,1-1.424-.591l-6.216-6.215a8.546,8.546,0,0,1-4.458,1.251A8.5,8.5,0,0,1,262.5-54.4a8.563,8.563,0,0,1,0-12.1A8.5,8.5,0,0,1,268.554-69a8.5,8.5,0,0,1,6.048,2.505,8.46,8.46,0,0,1,2.452,5.086,8.594,8.594,0,0,1-1.2,5.42l6.216,6.215a2,2,0,0,1,.59,1.425,2,2,0,0,1-.589,1.422A2,2,0,0,1,280.652-46.336Zm-12.018-20.5a6.482,6.482,0,0,0-6.476,6.475,6.483,6.483,0,0,0,6.476,6.476,6.482,6.482,0,0,0,6.475-6.476A6.482,6.482,0,0,0,268.634-66.841Z" transform="translate(-260.004 69)" fill="#334856"/>
</svg>
