<svg xmlns="http://www.w3.org/2000/svg" width="31.23" height="33.919" viewBox="0 0 31.23 33.919">
  <path id="Settings" d="M-459.887-583.565a7.786,7.786,0,0,0-1.057.048,1.13,1.13,0,0,0-.961,1.057l-.144.913a4.739,4.739,0,0,1-2.546,3.411,5.234,5.234,0,0,0-.528.288,4.644,4.644,0,0,1-4.228.48l-.865-.336a1.12,1.12,0,0,0-1.393.336,13.871,13.871,0,0,0-1.057,1.826,1.088,1.088,0,0,0,.432,1.345l.721.577a4.767,4.767,0,0,1,1.682,3.891v.673a4.651,4.651,0,0,1-1.682,3.892l-.721.576a1.221,1.221,0,0,0-.432,1.345,13.859,13.859,0,0,0,1.057,1.826,1.231,1.231,0,0,0,1.393.336l.865-.336a4.793,4.793,0,0,1,4.228.48c.192.1.336.192.528.288a4.832,4.832,0,0,1,2.546,3.411l.144.913a1.178,1.178,0,0,0,.961,1.057,7.776,7.776,0,0,0,1.057.048,7.775,7.775,0,0,0,1.057-.048,1.13,1.13,0,0,0,.961-1.057l.144-.913a4.739,4.739,0,0,1,2.546-3.411,5.254,5.254,0,0,0,.529-.288,4.644,4.644,0,0,1,4.228-.48l.865.336a1.12,1.12,0,0,0,1.393-.336,13.845,13.845,0,0,0,1.057-1.826,1.089,1.089,0,0,0-.432-1.345l-.721-.576a4.767,4.767,0,0,1-1.682-3.892v-.673a4.651,4.651,0,0,1,1.682-3.891l.721-.577a1.221,1.221,0,0,0,.432-1.345,13.857,13.857,0,0,0-1.057-1.826,1.231,1.231,0,0,0-1.393-.336l-.865.336a4.792,4.792,0,0,1-4.228-.48c-.192-.1-.336-.192-.529-.288a4.833,4.833,0,0,1-2.546-3.411l-.144-.913a1.178,1.178,0,0,0-.961-1.057A7.785,7.785,0,0,0-459.887-583.565Zm-1.249-2.787a10.89,10.89,0,0,1,1.249-.048,10.479,10.479,0,0,1,1.249.048,3.939,3.939,0,0,1,3.555,3.459l.144.913a1.882,1.882,0,0,0,1.057,1.345c.24.144.48.24.673.384a1.848,1.848,0,0,0,1.681.24l.865-.336A3.949,3.949,0,0,1-445.906-579a12.456,12.456,0,0,1,1.249,2.21,3.975,3.975,0,0,1-1.2,4.8l-.721.576a1.95,1.95,0,0,0-.625,1.585v.769a1.95,1.95,0,0,0,.625,1.586l.721.576a3.9,3.9,0,0,1,1.2,4.8c-.384.769-.817,1.489-1.249,2.21a3.949,3.949,0,0,1-4.756,1.345l-.865-.336a1.835,1.835,0,0,0-1.681.24,4.809,4.809,0,0,1-.673.384,1.882,1.882,0,0,0-1.057,1.345l-.144.913a3.939,3.939,0,0,1-3.555,3.459,10.861,10.861,0,0,1-1.249.048,10.453,10.453,0,0,1-1.249-.048,3.939,3.939,0,0,1-3.555-3.459l-.144-.913a1.882,1.882,0,0,0-1.057-1.345c-.24-.144-.48-.24-.673-.384a1.848,1.848,0,0,0-1.682-.24l-.865.336a3.949,3.949,0,0,1-4.756-1.345,12.459,12.459,0,0,1-1.249-2.21,3.975,3.975,0,0,1,1.2-4.8l.721-.576a1.95,1.95,0,0,0,.625-1.586v-.769a1.95,1.95,0,0,0-.625-1.585l-.721-.576a3.9,3.9,0,0,1-1.2-4.8c.384-.769.817-1.489,1.249-2.21a3.949,3.949,0,0,1,4.756-1.345l.865.336a1.835,1.835,0,0,0,1.682-.24,4.8,4.8,0,0,1,.673-.384,1.882,1.882,0,0,0,1.057-1.345l.144-.913A3.939,3.939,0,0,1-461.136-586.352Zm1.249,12.732a4.234,4.234,0,0,0-4.228,4.228,4.265,4.265,0,0,0,4.228,4.228,4.234,4.234,0,0,0,4.228-4.228A4.234,4.234,0,0,0-459.887-573.62Zm-7.062,4.228a7.074,7.074,0,0,1,7.063-7.062,7.074,7.074,0,0,1,7.062,7.062,7.074,7.074,0,0,1-7.062,7.062A7.043,7.043,0,0,1-466.949-569.393Z" transform="translate(475.502 586.4)" fill="#334856" fill-rule="evenodd"/>
</svg>
