<svg xmlns="http://www.w3.org/2000/svg" width="17.436" height="20" viewBox="0 0 17.436 20">
  <path id="Share" d="M30.1,963.362a3.337,3.337,0,0,0-3.173,4.359l-5.5,3.061a3.329,3.329,0,1,0,0,5.168l5.513,3.061a3.277,3.277,0,0,0-.168,1.018,3.351,3.351,0,1,0,.97-2.34l-5.361-2.981a3.313,3.313,0,0,0,.288-1.346,3.279,3.279,0,0,0-.288-1.346l5.353-2.981a3.333,3.333,0,1,0,2.372-5.673Zm0,1.538a1.795,1.795,0,1,1-1.795,1.795A1.783,1.783,0,0,1,30.1,964.9Zm-10.769,6.667a1.795,1.795,0,1,1-1.795,1.795A1.783,1.783,0,0,1,19.333,971.567ZM30.1,978.234a1.795,1.795,0,1,1-1.795,1.795A1.783,1.783,0,0,1,30.1,978.234Z" transform="translate(-16 -963.362)" fill="#334856"/>
</svg>
