<svg xmlns="http://www.w3.org/2000/svg" width="19.358" height="21.024" viewBox="0 0 19.358 21.024">
  <path id="Tag" d="M272.674-47.7a1.942,1.942,0,0,1-.744-.37l-8.448-6.779a.435.435,0,0,1-.162-.316L263-60.994l-.14-.392a.436.436,0,0,1,.14-.565l.962-.652c-.078-.186-.141-.351-.188-.472a5.634,5.634,0,0,1,1.329-5.308.891.891,0,0,1,1.112-.149c.8.516.88,2.6.717,3.917l1.564-1.06a.434.434,0,0,1,.35-.061L281.838-62.5a.437.437,0,0,1,.318.528l-2,8a2.061,2.061,0,0,1-.944,1.274,2.063,2.063,0,0,1-1.285.284l-3.265,4.045a1.925,1.925,0,0,1-1.3.714,1.972,1.972,0,0,1-.219.012A1.937,1.937,0,0,1,272.674-47.7Zm-8.083-7.6,7.79,6.184a1.071,1.071,0,0,0,.791.229,1.065,1.065,0,0,0,.719-.393l2.738-3.413L266.246-55.3a.437.437,0,0,1-.28-.219L264.3-58.406Zm-.411-5.842,2.755,4.733,10.686,2.578a1.194,1.194,0,0,0,.911-.138,1.189,1.189,0,0,0,.547-.736l1.695-6.693L269-64.347l-3.818,2.325c.329.595.5.545.691.626a.722.722,0,0,1,.614-.131.724.724,0,0,1,.526.877.724.724,0,0,1-.877.527.723.723,0,0,1-.485-.415,1.9,1.9,0,0,1-1.2-.988C263.934-61.152,264.174-61.161,264.18-61.141Zm1.485-6.574a4.751,4.751,0,0,0-1.074,4.328c.039.1.076.191.112.282l1.252-.849a.429.429,0,0,1,.008-.191c.318-1.148.139-3.338-.2-3.64A.461.461,0,0,0,265.665-67.714Zm8.087,10.486-3.443-.858a.519.519,0,0,1-.285-.661.518.518,0,0,1,.562-.449l3.443.859a.518.518,0,0,1,.285.66.554.554,0,0,1-.48.459A.336.336,0,0,1,273.751-57.228Zm3.439-1.291-6.377-1.59c-.233-.058-.351-.393-.263-.747s.349-.594.583-.535L277.51-59.8c.234.059.352.393.264.747-.079.319-.3.545-.512.545A.3.3,0,0,1,277.19-58.519Z" transform="translate(-262.81 68.663)" fill="#334856"/>
</svg>
