<svg xmlns="http://www.w3.org/2000/svg" width="19.734" height="19.734" viewBox="0 0 19.734 19.734">
  <path id="Time" d="M260-59.093A9.911,9.911,0,0,1,269.906-69a9.894,9.894,0,0,1,9.828,9.907,9.877,9.877,0,0,1-9.828,9.827A9.893,9.893,0,0,1,260-59.093Zm1.347,0a8.507,8.507,0,0,0,8.559,8.48,8.49,8.49,0,0,0,8.481-8.48,8.507,8.507,0,0,0-8.481-8.56A8.524,8.524,0,0,0,261.347-59.093Zm6.943.525v-7.008a2.091,2.091,0,0,1,1.152-.553,1.864,1.864,0,0,1,1.1.553v6.167l3.055,2.648a1.725,1.725,0,0,1-.362,1.038,2.176,2.176,0,0,1-1.081.488Z" transform="translate(-260 69)" fill="#334856"/>
</svg>
