<svg xmlns="http://www.w3.org/2000/svg" width="18.007" height="18.239" viewBox="0 0 18.007 18.239">
  <path id="Title" d="M27.551,7.341l-1.06-1.2a.985.985,0,0,0-.734-.306h-7.92V1.46H21.68l.79.892a.981.981,0,0,0,.734.306,1.058,1.058,0,0,0,.525-.137.646.646,0,0,0,.21-1.018l-1.06-1.2A.979.979,0,0,0,22.145,0H11.631A.982.982,0,0,0,10.9.3L9.886,1.423a.642.642,0,0,0,.2,1.017,1.045,1.045,0,0,0,1.261-.158l.747-.823h3.943V5.837h-.79a.982.982,0,0,0-.728.3L13.5,7.259a.643.643,0,0,0,.2,1.018,1.047,1.047,0,0,0,1.261-.158L15.7,7.3h.331v3.648h-.9a.831.831,0,0,0-.9.73.831.831,0,0,0,.9.73h3.612a.831.831,0,0,0,.9-.73.831.831,0,0,0-.9-.73h-.9V7.3h1.806V16.78h-.9a.83.83,0,0,0-.9.73.831.831,0,0,0,.9.73h3.612a.832.832,0,0,0,.9-.73.832.832,0,0,0-.9-.73h-.9V7.3h3.843l.788.892a.983.983,0,0,0,.734.306,1.078,1.078,0,0,0,.527-.137A.644.644,0,0,0,27.551,7.341Z" transform="translate(-9.712)" fill="#334856"/>
</svg>
