<svg xmlns="http://www.w3.org/2000/svg" width="35.118" height="35.118" viewBox="0 0 35.118 35.118">
  <path id="To_Do" data-name="To Do" d="M34.294,16.8l2.02-2.02a1.046,1.046,0,0,1,1.479,0l2.02,2.02a1.046,1.046,0,0,1,0,1.479l-2.02,2.02ZM6.8,40.118H29.865a1.8,1.8,0,0,0,1.8-1.8V29.184l-1.951,1.951v7.032H6.951V11.11h3.238V9.159H6.8a1.8,1.8,0,0,0-1.8,1.8V38.317a1.8,1.8,0,0,0,1.8,1.8Zm24.865-23.45V10.961a1.8,1.8,0,0,0-1.8-1.8H26.478V11.11h3.238V18.62ZM23,13.858a1.53,1.53,0,0,0,1.53-1.53V9.415A1.53,1.53,0,0,0,23,7.885H21.521a3.2,3.2,0,0,0-6.376,0H13.67a1.53,1.53,0,0,0-1.53,1.53v2.914a1.53,1.53,0,0,0,1.53,1.53ZM10.189,18.747v1.4a.275.275,0,0,0,.275.275H26.2a.275.275,0,0,0,.275-.275v-1.4a.275.275,0,0,0-.275-.275H10.464a.275.275,0,0,0-.275.275ZM19.278,31.6H10.464a.275.275,0,0,0-.275.275v1.4a.275.275,0,0,0,.275.275h8.447a2.556,2.556,0,0,1,.125-1.293Zm2.379,2.123,4.285-1.576.516-.516-3.5-3.5-.516.516-1.578,4.288a.615.615,0,0,0,.792.786ZM23.3,25.037H10.464a.275.275,0,0,0-.275.275v1.4a.275.275,0,0,0,.275.275H21.347ZM36.689,21.4l-3.5-3.5-9.127,9.127,3.5,3.5Z" transform="translate(-5 -5)" fill="#334856"/>
</svg>
